<?xml version="1.0" encoding="utf-8"?>
<!-- Generator: Adobe Illustrator 26.2.1, SVG Export Plug-In . SVG Version: 6.00 Build 0)  -->
<svg version="1.1" id="Layer_1" xmlns="http://www.w3.org/2000/svg" xmlns:xlink="http://www.w3.org/1999/xlink" x="0px" y="0px"
	 viewBox="0 0 448 512" style="enable-background:new 0 0 448 512;" xml:space="preserve">
<path d="M224.1,141c-63.6,0-114.9,51.3-114.9,114.9s51.3,114.9,114.9,114.9S339,319.5,339,255.9S287.7,141,224.1,141z M224.1,330.6
	c-41.1,0-74.7-33.5-74.7-74.7s33.5-74.7,74.7-74.7s74.7,33.5,74.7,74.7S265.2,330.6,224.1,330.6L224.1,330.6z M370.5,136.3
	c0,14.9-12,26.8-26.8,26.8c-14.9,0-26.8-12-26.8-26.8s12-26.8,26.8-26.8S370.5,121.5,370.5,136.3z M446.6,163.5
	c-1.7-35.9-9.9-67.7-36.2-93.9c-26.2-26.2-58-34.4-93.9-36.2c-37-2.1-147.9-2.1-184.9,0C95.8,35.1,64,43.3,37.7,69.5
	s-34.4,58-36.2,93.9c-2.1,37-2.1,147.9,0,184.9c1.7,35.9,9.9,67.7,36.2,93.9s58,34.4,93.9,36.2c37,2.1,147.9,2.1,184.9,0
	c35.9-1.7,67.7-9.9,93.9-36.2c26.2-26.2,34.4-58,36.2-93.9C448.7,311.3,448.7,200.5,446.6,163.5L446.6,163.5z M398.8,388
	c-7.8,19.6-22.9,34.7-42.6,42.6c-29.5,11.7-99.5,9-132.1,9s-102.7,2.6-132.1-9c-19.6-7.8-34.7-22.9-42.6-42.6
	c-11.7-29.5-9-99.5-9-132.1s-2.6-102.7,9-132.1c7.8-19.6,22.9-34.7,42.6-42.6c29.5-11.7,99.5-9,132.1-9s102.7-2.6,132.1,9
	c19.6,7.8,34.7,22.9,42.6,42.6c11.7,29.5,9,99.5,9,132.1S410.5,358.6,398.8,388z"/>
<path d="M224,248.5c-18.7,0-45.1,29-45.1,47.2c-0.2,8.2,6.1,13.2,16.7,13.2c11.5,0,19.1-5.9,28.4-5.9c9.3,0,17,5.9,28.4,5.9
	c10.4,0,16.9-4.9,16.9-13.2C269.1,277.4,242.7,248.5,224,248.5z M189.3,245.5c-2.4-8.2-10-13.5-16.9-11.8s-10.5,9.6-8,17.8
	c2.4,8.2,10,13.5,16.9,11.8C188.1,261.6,191.7,253.6,189.3,245.5z M209.3,240.6c7.3-1.9,10.9-11.6,8.1-22
	c-2.8-10.4-11-16.8-18.3-15.1c-7.3,1.9-10.9,11.6-8.1,22C193.8,235.7,201.9,242.5,209.3,240.6z M275.7,233.7
	c-6.9-1.4-14.5,3.7-16.9,11.8c-2.4,8.2,1.1,16.1,8,17.8c6.9,1.4,14.4-3.7,16.9-11.8C286.1,243.3,282.3,235.3,275.7,233.7z
	 M238.8,240.6c7.1,1.9,15.5-4.8,18.3-15.1c2.8-10.2-0.9-20.1-8.1-22c-7.1-1.9-15.5,4.8-18.3,15.1
	C227.8,228.8,231.5,238.7,238.8,240.6z"/>
</svg>
